<mxfile host="app.diagrams.net" modified="2023-08-28T12:57:35.051Z" agent="Mozilla/5.0 (Macintosh; Intel Mac OS X 10_15_7) AppleWebKit/537.36 (KHTML, like Gecko) Chrome/118.0.0.0 Safari/537.36 Edg/118.0.0.0" etag="RbpyzU79b99QMbMsBuW5" version="21.6.9" type="github">
  <diagram name="PÃ¡gina-1" id="aZSmRM0oRbDf6rdTAcJA">
    <mxGraphModel dx="2514" dy="1305" grid="1" gridSize="10" guides="1" tooltips="1" connect="1" arrows="1" fold="1" page="1" pageScale="1" pageWidth="827" pageHeight="1169" math="0" shadow="0">
      <root>
        <mxCell id="0" />
        <mxCell id="1" parent="0" />
        <mxCell id="ETQC15Gf2ZfsvhfQn1PS-25" style="edgeStyle=orthogonalEdgeStyle;rounded=0;orthogonalLoop=1;jettySize=auto;html=1;exitX=0.5;exitY=1;exitDx=0;exitDy=0;entryX=0.5;entryY=0;entryDx=0;entryDy=0;" parent="1" source="ETQC15Gf2ZfsvhfQn1PS-2" target="ETQC15Gf2ZfsvhfQn1PS-3" edge="1">
          <mxGeometry relative="1" as="geometry" />
        </mxCell>
        <mxCell id="ETQC15Gf2ZfsvhfQn1PS-38" value="" style="edgeStyle=orthogonalEdgeStyle;rounded=0;orthogonalLoop=1;jettySize=auto;html=1;" parent="1" source="ETQC15Gf2ZfsvhfQn1PS-2" target="ETQC15Gf2ZfsvhfQn1PS-4" edge="1">
          <mxGeometry relative="1" as="geometry" />
        </mxCell>
        <mxCell id="ETQC15Gf2ZfsvhfQn1PS-2" value="Client upload" style="rounded=1;whiteSpace=wrap;html=1;" parent="1" vertex="1">
          <mxGeometry x="350" y="220" width="100" height="40" as="geometry" />
        </mxCell>
        <mxCell id="ETQC15Gf2ZfsvhfQn1PS-26" style="edgeStyle=orthogonalEdgeStyle;rounded=0;orthogonalLoop=1;jettySize=auto;html=1;exitX=0.5;exitY=1;exitDx=0;exitDy=0;entryX=0.5;entryY=0;entryDx=0;entryDy=0;" parent="1" source="ETQC15Gf2ZfsvhfQn1PS-3" target="ETQC15Gf2ZfsvhfQn1PS-4" edge="1">
          <mxGeometry relative="1" as="geometry" />
        </mxCell>
        <mxCell id="ETQC15Gf2ZfsvhfQn1PS-3" value="API Endpoint" style="rounded=1;whiteSpace=wrap;html=1;" parent="1" vertex="1">
          <mxGeometry x="350" y="280" width="100" height="40" as="geometry" />
        </mxCell>
        <mxCell id="ETQC15Gf2ZfsvhfQn1PS-10" style="edgeStyle=orthogonalEdgeStyle;rounded=0;orthogonalLoop=1;jettySize=auto;html=1;entryX=0.5;entryY=0;entryDx=0;entryDy=0;" parent="1" source="ETQC15Gf2ZfsvhfQn1PS-4" target="ETQC15Gf2ZfsvhfQn1PS-5" edge="1">
          <mxGeometry relative="1" as="geometry" />
        </mxCell>
        <mxCell id="ETQC15Gf2ZfsvhfQn1PS-4" value="Server reception" style="rounded=1;whiteSpace=wrap;html=1;" parent="1" vertex="1">
          <mxGeometry x="350" y="340" width="100" height="40" as="geometry" />
        </mxCell>
        <mxCell id="ETQC15Gf2ZfsvhfQn1PS-27" style="edgeStyle=orthogonalEdgeStyle;rounded=0;orthogonalLoop=1;jettySize=auto;html=1;" parent="1" source="ETQC15Gf2ZfsvhfQn1PS-5" target="ETQC15Gf2ZfsvhfQn1PS-12" edge="1">
          <mxGeometry relative="1" as="geometry" />
        </mxCell>
        <mxCell id="ETQC15Gf2ZfsvhfQn1PS-5" value="Temporary storage" style="rounded=1;whiteSpace=wrap;html=1;" parent="1" vertex="1">
          <mxGeometry x="350" y="400" width="100" height="40" as="geometry" />
        </mxCell>
        <mxCell id="ETQC15Gf2ZfsvhfQn1PS-23" style="edgeStyle=orthogonalEdgeStyle;rounded=0;orthogonalLoop=1;jettySize=auto;html=1;entryX=0.5;entryY=0;entryDx=0;entryDy=0;exitX=0.5;exitY=1;exitDx=0;exitDy=0;" parent="1" source="ETQC15Gf2ZfsvhfQn1PS-6" target="ETQC15Gf2ZfsvhfQn1PS-21" edge="1">
          <mxGeometry relative="1" as="geometry" />
        </mxCell>
        <mxCell id="ETQC15Gf2ZfsvhfQn1PS-6" value="Metadata creation" style="rounded=1;whiteSpace=wrap;html=1;" parent="1" vertex="1">
          <mxGeometry x="350" y="520" width="100" height="40" as="geometry" />
        </mxCell>
        <mxCell id="ETQC15Gf2ZfsvhfQn1PS-29" style="edgeStyle=orthogonalEdgeStyle;rounded=0;orthogonalLoop=1;jettySize=auto;html=1;entryX=0;entryY=0.5;entryDx=0;entryDy=0;" parent="1" source="ETQC15Gf2ZfsvhfQn1PS-12" target="ETQC15Gf2ZfsvhfQn1PS-13" edge="1">
          <mxGeometry relative="1" as="geometry" />
        </mxCell>
        <mxCell id="ETQC15Gf2ZfsvhfQn1PS-12" value="IV generation" style="rounded=1;whiteSpace=wrap;html=1;" parent="1" vertex="1">
          <mxGeometry x="350" y="460" width="100" height="40" as="geometry" />
        </mxCell>
        <mxCell id="ETQC15Gf2ZfsvhfQn1PS-19" value="" style="edgeStyle=orthogonalEdgeStyle;rounded=0;orthogonalLoop=1;jettySize=auto;html=1;" parent="1" source="ETQC15Gf2ZfsvhfQn1PS-13" target="ETQC15Gf2ZfsvhfQn1PS-14" edge="1">
          <mxGeometry relative="1" as="geometry" />
        </mxCell>
        <mxCell id="ETQC15Gf2ZfsvhfQn1PS-13" value="AES encryption" style="rounded=1;whiteSpace=wrap;html=1;" parent="1" vertex="1">
          <mxGeometry x="490" y="460" width="100" height="40" as="geometry" />
        </mxCell>
        <mxCell id="ETQC15Gf2ZfsvhfQn1PS-22" style="edgeStyle=orthogonalEdgeStyle;rounded=0;orthogonalLoop=1;jettySize=auto;html=1;entryX=1;entryY=0.5;entryDx=0;entryDy=0;" parent="1" source="ETQC15Gf2ZfsvhfQn1PS-14" target="ETQC15Gf2ZfsvhfQn1PS-6" edge="1">
          <mxGeometry relative="1" as="geometry" />
        </mxCell>
        <mxCell id="ETQC15Gf2ZfsvhfQn1PS-14" value="RSA Encryption" style="rounded=1;whiteSpace=wrap;html=1;" parent="1" vertex="1">
          <mxGeometry x="490" y="520" width="100" height="40" as="geometry" />
        </mxCell>
        <mxCell id="ETQC15Gf2ZfsvhfQn1PS-33" style="edgeStyle=orthogonalEdgeStyle;rounded=0;orthogonalLoop=1;jettySize=auto;html=1;entryX=0.5;entryY=0;entryDx=0;entryDy=0;" parent="1" source="ETQC15Gf2ZfsvhfQn1PS-21" target="ETQC15Gf2ZfsvhfQn1PS-32" edge="1">
          <mxGeometry relative="1" as="geometry" />
        </mxCell>
        <mxCell id="ETQC15Gf2ZfsvhfQn1PS-21" value="Metadata storage" style="rounded=1;whiteSpace=wrap;html=1;" parent="1" vertex="1">
          <mxGeometry x="350" y="585" width="100" height="40" as="geometry" />
        </mxCell>
        <mxCell id="ETQC15Gf2ZfsvhfQn1PS-41" style="edgeStyle=orthogonalEdgeStyle;rounded=0;orthogonalLoop=1;jettySize=auto;html=1;entryX=0;entryY=0.5;entryDx=0;entryDy=0;" parent="1" source="ETQC15Gf2ZfsvhfQn1PS-32" target="ETQC15Gf2ZfsvhfQn1PS-40" edge="1">
          <mxGeometry relative="1" as="geometry" />
        </mxCell>
        <mxCell id="ETQC15Gf2ZfsvhfQn1PS-32" value="Confirmation" style="rounded=1;whiteSpace=wrap;html=1;" parent="1" vertex="1">
          <mxGeometry x="350" y="650" width="100" height="40" as="geometry" />
        </mxCell>
        <mxCell id="ETQC15Gf2ZfsvhfQn1PS-39" style="edgeStyle=orthogonalEdgeStyle;rounded=0;orthogonalLoop=1;jettySize=auto;html=1;entryX=0.5;entryY=0;entryDx=0;entryDy=0;" parent="1" source="ETQC15Gf2ZfsvhfQn1PS-36" target="ETQC15Gf2ZfsvhfQn1PS-2" edge="1">
          <mxGeometry relative="1" as="geometry" />
        </mxCell>
        <mxCell id="ETQC15Gf2ZfsvhfQn1PS-36" value="Start" style="ellipse;whiteSpace=wrap;html=1;" parent="1" vertex="1">
          <mxGeometry x="365" y="150" width="70" height="50" as="geometry" />
        </mxCell>
        <mxCell id="ETQC15Gf2ZfsvhfQn1PS-40" value="End" style="ellipse;whiteSpace=wrap;html=1;" parent="1" vertex="1">
          <mxGeometry x="480" y="645" width="70" height="50" as="geometry" />
        </mxCell>
      </root>
    </mxGraphModel>
  </diagram>
</mxfile>
